# Blender 3.6.4
# www.blender.org
mtllib turn.mtl
o Plane
v -8.000000 0.000000 19.999998
v 8.000000 0.000000 19.999998
v -8.000000 0.000000 -19.999998
v 8.000000 0.000000 -19.999998
v -8.100000 0.000000 20.000000
v -8.100000 12.000000 20.000000
v -8.100000 0.000000 -20.000000
v -8.100000 12.000000 -20.000000
v -7.900001 0.000000 20.000000
v -7.900001 12.000000 20.000000
v -7.900001 0.000000 -20.000000
v -7.900001 12.000000 -20.000000
v 7.900001 0.000000 19.999998
v 7.900001 12.000000 19.999998
v 7.900001 0.000000 -3.999999
v 7.900001 12.000000 -3.999999
v 8.100000 0.000000 19.999998
v 8.100000 12.000000 19.999998
v 8.100000 0.000000 -3.999999
v 8.100000 12.000000 -3.999999
v 8.000000 12.000001 19.999998
v -8.000000 11.999999 19.999998
v 8.000000 12.000001 -19.999998
v -8.000000 11.999999 -19.999998
v -8.000000 0.000000 -20.000000
v 8.000000 0.000000 -20.000000
v -8.000000 12.000000 -20.000000
v 8.000000 12.000000 -20.000000
vn -0.0000 1.0000 -0.0000
vn -1.0000 -0.0000 -0.0000
vn -0.0000 -0.0000 -1.0000
vn 1.0000 -0.0000 -0.0000
vn -0.0000 -0.0000 1.0000
vn -0.0000 -1.0000 -0.0000
vt 0.000000 0.000000
vt 1.000000 0.000000
vt 1.000000 1.000000
vt 0.000000 1.000000
vt 0.375000 0.000000
vt 0.625000 0.000000
vt 0.625000 0.250000
vt 0.375000 0.250000
vt 0.625000 0.500000
vt 0.375000 0.500000
vt 0.625000 0.750000
vt 0.375000 0.750000
vt 0.625000 1.000000
vt 0.375000 1.000000
vt 0.125000 0.500000
vt 0.125000 0.750000
vt 0.875000 0.500000
vt 0.875000 0.750000
s 0
f 1/1/1 2/2/1 4/3/1 3/4/1
f 5/5/2 6/6/2 8/7/2 7/8/2
f 7/8/3 8/7/3 12/9/3 11/10/3
f 11/10/4 12/9/4 10/11/4 9/12/4
f 9/12/5 10/11/5 6/13/5 5/14/5
f 7/15/6 11/10/6 9/12/6 5/16/6
f 12/9/1 8/17/1 6/18/1 10/11/1
f 13/5/2 14/6/2 16/7/2 15/8/2
f 15/8/3 16/7/3 20/9/3 19/10/3
f 19/10/4 20/9/4 18/11/4 17/12/4
f 17/12/5 18/11/5 14/13/5 13/14/5
f 15/15/6 19/10/6 17/12/6 13/16/6
f 20/9/1 16/17/1 14/18/1 18/11/1
f 21/1/6 22/2/6 24/3/6 23/4/6
f 25/1/5 26/2/5 28/3/5 27/4/5
